# xmcd
#
# Track frame offsets: 
#        150
#        12217
#        24222
#        36622
#        44555
#        56970
#        65637
#        77757
#        87552
#        100515
#        106082
#        117215
#        123262
#        129920
#        143417
#        150770
#        160637
#        172272
#        173847
#        189967
#        190417
#        192067
#        223725
#        224175
#        225825
#        226725
#        227175
#        227625
#        228075
#        228975
#        229872
#        230325
#        231225
#        231675
#        232575
#        233475
#        235125
#        254020
#
# Disc length: 3485 seconds
#
# Revision: 2
# Processed by: cddbd v1.5.1PL2 Copyright (c) Steve Scherf et al.
# Submitted via: ExactAudioCopy v0.95b3
#
DISCID=eb0d9b26
DTITLE=The Kagas - Nuevos Héroes del Rock
DYEAR=2003
DGENRE=Punk Rock
TTITLE0=Los Colocones - De Legal
TTITLE1=Víctimas de la Democracia - Come Libertad
TTITLE2=Los Mira Que Eres - Bobo
TTITLE3=Hitler Era Judío - Un Neonazi
TTITLE4=Los Majaras - Santa Agueda
TTITLE5=The Stupefactos - Vomitando
TTITLE6=Poetas de la Mierda - Mierda
TTITLE7=Los Emigrantes - Vacaciones En Europa
TTITLE8=Retrato Social Incompleto - La Vida Loca
TTITLE9=Los Riberos del Country - E.A.G.S. (Se Vende Moto)
TTITLE10=Los Monos de Gibraltar - Manolo Ascodás
TTITLE11=El Labio de Arriba del Presidente - Underdog
TTITLE12=Los Primos de los Dead Kennedys - En la Farra (Muy Personal)
TTITLE13=Las Prostitutas Cristianas - Bad Religión
TTITLE14=Euskal Mantra - Fan Pikutara
TTITLE15=Los Caníbales - ¡¡A Comer!!
TTITLE16=Los Comunistas Violentos - Día de Limpieza
TTITLE17=Los Biceps - Deporte Es Salud
TTITLE18=The Discotheque's - Bailando Bajo Tejado
TTITLE19=_blank_
TTITLE20=_blank_
TTITLE21=_blank_
TTITLE22=_blank_
TTITLE23=_blank_
TTITLE24=_blank_
TTITLE25=_blank_
TTITLE26=_blank_
TTITLE27=_blank_
TTITLE28=_blank_
TTITLE29=_blank_
TTITLE30=_blank_
TTITLE31=_blank_
TTITLE32=_blank_
TTITLE33=_blank_
TTITLE34=_blank_
TTITLE35=_blank_
TTITLE36=bonus track
TTITLE37=DATA
EXTD=
EXTT0=
EXTT1=
EXTT2=
EXTT3=
EXTT4=
EXTT5=
EXTT6=
EXTT7=
EXTT8=
EXTT9=
EXTT10=
EXTT11=
EXTT12=
EXTT13=
EXTT14=
EXTT15=
EXTT16=
EXTT17=
EXTT18=
EXTT19=
EXTT20=
EXTT21=
EXTT22=
EXTT23=
EXTT24=
EXTT25=
EXTT26=
EXTT27=
EXTT28=
EXTT29=
EXTT30=
EXTT31=
EXTT32=
EXTT33=
EXTT34=
EXTT35=
EXTT36=
EXTT37=
PLAYORDER=
